<?xml version="1.0" encoding="UTF-8" standalone="no"?>
<svg viewBox="0 0 1000 400" xmlns="http://www.w3.org/2000/svg">
   <path d="M156.19727 0 0 387.89062h109.33789l18.22266-54.66992h135.37109l18.22266 54.66992h109.33789L236.89844 0h-80.70117zm598.75585 0v387.89062h85.90821V0h-85.90821zM550.5957 85.908203c-89.81391 0-157.75976 69.768357-157.75976 156.197267 0 91.11491 70.80985 156.19726 157.75976 156.19726 86.94892 0 157.49805-65.08235 157.49805-156.19726 0-86.42891-67.68514-156.197267-157.49805-156.197267zM196.54883 122.35547l40.34961 130.16406h-80.70117l40.35156-130.16406zm354.04687 46.07812c38.78896-.26 70.54883 32.79992 70.54883 73.67188 0 40.61096-31.75987 73.67383-70.54883 73.67383-38.78896 0-70.54882-33.06287-70.54882-73.67383 0-40.87196 31.75986-73.67188 70.54882-73.67188zm394.73438 120.52149c-30.19797 0-54.66797 24.47-54.66797 54.66797 0 30.19797 24.47 54.66992 54.66797 54.66992 30.19797 0 54.66992-24.47195 54.66992-54.66992 0-30.19797-24.47195-54.66797-54.66992-54.66797z"/>
</svg>
