<svg viewBox="0 0 78.505 75.591" xmlns="http://www.w3.org/2000/svg" xmlns:xlink="http://www.w3.org/1999/xlink">
<linearGradient id="a" gradientTransform="matrix(0 -68.808 -68.808 0 52.824 79.229)" gradientUnits="userSpaceOnUse" x2="1">
<stop offset="0" stop-color="#9c0000"/>
<stop offset=".7" stop-color="#ff4b4b"/>
<stop offset="1" stop-color="#ff4b4b"/>
</linearGradient>
<linearGradient id="b" gradientTransform="matrix(0 -80.398 -80.398 0 32.876 84.947)" gradientUnits="userSpaceOnUse" x2="1">
<stop offset="0" stop-color="#ff1b2d"/>
<stop offset=".3" stop-color="#ff1b2d"/>
<stop offset=".614" stop-color="#ff1b2d"/>
<stop offset="1" stop-color="#a70014"/>
</linearGradient>
<g transform="matrix(.940176495 0 0 -.940176495 0 79.8709865)">
<g>
<path d="m26.251 64.397c3.654 5.264 8.768 8.535 14.428 8.535 11.104 0 20.107-12.59 20.107-28.119 0-15.531-9.003-28.12-20.107-28.12-6.197 0-11.74 3.922-15.429 10.087 5.588-9.865 15.628-16.359 27.085-16.359 6.005 0 10.242 1.388 13.416 3.293 8.944 7.373 14.647 18.537 14.647 31.034 0 12.848-6.028 24.289-15.411 31.648-3.876 1.823-8.155 2.834-12.652 2.834-10.803 0-20.346-5.91-26.084-14.833" fill="url(#a)"/>
<path d="m0 44.748c0-22.201 17.997-40.199 40.199-40.199 9.705 0 18.606 3.439 25.552 9.165-3.174-1.905-7.411-3.293-13.416-3.293-11.457 0-21.497 6.494-27.085 16.359-2.931 5.176-4.636 11.28-4.677 17.861 0 .017-.001.149-.001.198.001.659.017 1.312.05 1.96.336 6.485 2.368 12.527 5.629 17.598 5.738 8.923 15.281 14.833 26.084 14.833 4.497 0 8.776-1.011 12.652-2.834-6.829 5.356-15.436 8.551-24.788 8.551-22.202 0-40.199-17.998-40.199-40.199" fill="url(#b)"/>
</g>
<g>
<path d="m83.498 43.037h-34.99c-11.346 0-12.788-11.311-12.788-15.498v-5.798h31.779c14.604 0 15.999 12.445 15.999 16.611z" fill="#439f46" fill-rule="evenodd"/>
<g fill="#fff">
<path d="m45.581 37.674h2.094l3.359-8.375 3.359 8.375h2.091v-10.548h-1.928v6.441c-.089-.271-.511-1.609-.511-1.609l-2.062-4.832h-1.898l-2.064 4.832s-.423 1.338-.512 1.609v-6.441h-1.928z"/>
<path d="m57.925 37.674h1.994v-10.548h-1.994z"/>
<path d="m61.36 37.674h2.026l4.395-6.708s.36-.607.449-.833v7.541h1.928v-10.548h-2.013l-4.402 6.745s-.366.6-.455.826v-7.571h-1.928z"/>
<path d="m71.62 37.674h1.972v-10.548h-1.972z"/>
</g>
</g>
</g>
</svg>
